<svg width="20" height="20" viewBox="0 0 20 20" fill="none" xmlns="http://www.w3.org/2000/svg">
<g clip-path="url(#clip0_52_299)">
<path d="M16.995 4.11723C15.7832 3.5738 14.4843 3.17213 13.126 2.94373C13.1139 2.94142 13.1014 2.94291 13.0902 2.94799C13.079 2.95307 13.0696 2.96149 13.0635 2.97208C12.8971 3.2627 12.7118 3.64153 12.5819 3.94081C11.1413 3.72678 9.67674 3.72678 8.23615 3.94081C8.09147 3.60913 7.92833 3.28572 7.74747 2.97208C7.74134 2.96136 7.73207 2.95275 7.72089 2.9474C7.70971 2.94205 7.69716 2.94022 7.68491 2.94215C6.3274 3.17055 5.0285 3.57222 3.81593 4.11645C3.8055 4.1208 3.79665 4.12822 3.79058 4.13771C1.32584 7.74092 0.650257 11.2551 0.98211 14.7252C0.983034 14.7337 0.985686 14.742 0.989907 14.7494C0.994128 14.7569 0.999829 14.7634 1.00666 14.7686C2.44527 15.8101 4.04984 16.6035 5.75319 17.1156C5.76506 17.1192 5.77776 17.1192 5.78963 17.1155C5.8015 17.1119 5.81199 17.1048 5.81972 17.0951C6.18563 16.6068 6.51194 16.0909 6.79072 15.5491C6.80736 15.5176 6.79152 15.4798 6.75825 15.4671C6.24662 15.2756 5.75088 15.0443 5.27561 14.7756C5.26707 14.7708 5.25987 14.7639 5.25466 14.7556C5.24946 14.7473 5.2464 14.7379 5.24577 14.7281C5.24515 14.7184 5.24696 14.7086 5.25106 14.6997C5.25517 14.6908 5.26142 14.6831 5.26927 14.6772C5.36906 14.604 5.46886 14.5276 5.5639 14.4512C5.57245 14.4443 5.58276 14.4399 5.59367 14.4385C5.60457 14.4371 5.61565 14.4388 5.62567 14.4433C8.73591 15.8326 12.1043 15.8326 15.1781 14.4433C15.1882 14.4385 15.1994 14.4367 15.2104 14.4379C15.2215 14.4392 15.232 14.4435 15.2407 14.4504C15.3357 14.5276 15.4347 14.604 15.5353 14.6772C15.5433 14.683 15.5496 14.6906 15.5538 14.6994C15.5581 14.7082 15.56 14.7179 15.5596 14.7277C15.5591 14.7374 15.5562 14.7469 15.5511 14.7553C15.5461 14.7637 15.539 14.7707 15.5306 14.7756C15.057 15.0466 14.5643 15.2758 14.0471 15.4664C14.0392 15.4692 14.032 15.4737 14.0259 15.4796C14.0199 15.4855 14.0151 15.4926 14.0121 15.5004C14.009 15.5082 14.0076 15.5166 14.0081 15.525C14.0085 15.5334 14.0108 15.5416 14.0147 15.5491C14.2998 16.0901 14.6261 16.6052 14.9849 17.0943C14.9923 17.1043 15.0027 17.1118 15.0146 17.1158C15.0265 17.1197 15.0394 17.1199 15.0514 17.1164C16.7577 16.6057 18.3649 15.8119 19.8051 14.7686C19.8121 14.7637 19.818 14.7574 19.8224 14.75C19.8267 14.7427 19.8295 14.7345 19.8304 14.726C20.2264 10.7141 19.1667 7.2282 17.0196 4.13929C17.0143 4.12925 17.0056 4.12142 16.995 4.11723ZM7.25564 12.6121C6.31948 12.6121 5.54727 11.7702 5.54727 10.7377C5.54727 9.70438 6.30443 8.86323 7.25564 8.86323C8.21397 8.86323 8.97905 9.71146 8.964 10.7377C8.964 11.771 8.20684 12.6121 7.25564 12.6121ZM13.5719 12.6121C12.635 12.6121 11.8636 11.7702 11.8636 10.7377C11.8636 9.70438 12.6199 8.86323 13.5719 8.86323C14.5303 8.86323 15.2953 9.71146 15.2803 10.7377C15.2803 11.771 14.5311 12.6121 13.5719 12.6121Z" fill="white"/>
</g>
<defs>
<clipPath id="clip0_52_299">
<rect width="19.0083" height="18.9021" fill="white" transform="translate(0.902344 0.578125)"/>
</clipPath>
</defs>
</svg>
