<svg width="194" height="159" viewBox="0 0 194 159" fill="none" xmlns="http://www.w3.org/2000/svg">
<rect width="194" height="158.097" fill="black"/>
<path d="M92.8544 80.323L82.1024 89.155C82.3584 96.067 82.6571 103.534 82.9984 111.555C83.0837 113.944 82.2731 116.078 80.5664 117.955C78.9451 119.747 76.8971 120.686 74.4224 120.771C72.033 120.942 69.8997 120.216 68.0224 118.595C66.2304 116.888 65.249 114.798 65.0784 112.323C63.7984 86.0403 63.3291 60.4403 63.6704 35.523C63.7557 33.0483 64.6517 30.9577 66.3584 29.251C68.1504 27.5443 70.2837 26.7337 72.7584 26.819C75.2331 26.819 77.3237 27.715 79.0304 29.507C80.7371 31.2137 81.5904 33.3043 81.5904 35.779C81.4197 46.6163 81.4197 56.8137 81.5904 66.371C94.9877 54.9363 107.404 42.7763 118.838 29.891C120.545 28.099 122.593 27.1603 124.982 27.075C127.457 26.9897 129.59 27.8003 131.382 29.507C133.26 31.2137 134.241 33.3043 134.326 35.779C134.412 38.1683 133.601 40.3017 131.894 42.179C123.532 51.7363 114.998 60.483 106.294 68.419L135.734 106.307C137.27 108.184 137.868 110.36 137.526 112.835C137.27 115.31 136.161 117.315 134.198 118.851C132.321 120.387 130.145 120.984 127.67 120.643C125.196 120.387 123.19 119.278 121.654 117.315L92.8544 80.323Z" fill="white"/>
</svg>
