<svg width="19" height="16" viewBox="0 0 19 16" fill="none" xmlns="http://www.w3.org/2000/svg">
<path d="M18.3057 2.55207C17.6444 2.84348 16.9339 3.04038 16.1871 3.12937C16.9577 2.67084 17.5342 1.94915 17.8091 1.09897C17.0851 1.52663 16.2927 1.82765 15.4663 1.98895C14.9106 1.39894 14.1746 1.00787 13.3725 0.876461C12.5704 0.745051 11.7471 0.880649 11.0305 1.2622C10.3138 1.64376 9.74386 2.24992 9.40914 2.98659C9.07442 3.72325 8.99364 4.5492 9.17933 5.33619C7.71228 5.26294 6.27711 4.88376 4.96696 4.22326C3.65681 3.56275 2.50096 2.63568 1.57444 1.50222C1.25763 2.04565 1.07547 2.67572 1.07547 3.34675C1.07512 3.95082 1.22471 4.54565 1.51098 5.07844C1.79725 5.61124 2.21134 6.06553 2.71652 6.40101C2.13065 6.38247 1.5577 6.22505 1.04537 5.94185V5.9891C1.04531 6.83634 1.34003 7.65751 1.87951 8.31327C2.41898 8.96903 3.17 9.41899 4.00512 9.5868C3.46163 9.73307 2.89182 9.75461 2.33873 9.64981C2.57435 10.3788 3.03332 11.0163 3.65138 11.473C4.26945 11.9297 5.01566 12.1828 5.78556 12.1969C4.47861 13.2171 2.86453 13.7705 1.20298 13.7681C0.908656 13.7682 0.614578 13.7511 0.322266 13.7169C2.00884 14.7952 3.97213 15.3675 5.97723 15.3653C12.7648 15.3653 16.4753 9.77503 16.4753 4.92665C16.4753 4.76913 16.4714 4.61004 16.4643 4.45252C17.186 3.93348 17.809 3.29075 18.3041 2.55444L18.3057 2.55207Z" fill="white"/>
</svg>
